<svg width="16" height="16" viewBox="0 0 16 16" fill="none" xmlns="http://www.w3.org/2000/svg">
<g clip-path="url(#clip0_2554_6584)">
<path d="M8.00067 2.58666C8.66898 2.58666 9.24623 2.16054 9.4536 1.53369C9.05797 1.6426 8.5537 1.70832 8.00067 1.70832C7.44769 1.70832 6.94343 1.6426 6.54785 1.53369C6.75511 2.16049 7.33232 2.58666 8.00067 2.58666Z" fill="white"/>
<path d="M15.6945 3.35849C15.6628 3.26942 15.5968 3.19618 15.5107 3.15629L12.5692 1.79838C11.9435 1.58642 11.3061 1.41899 10.6624 1.29662C10.6397 1.29218 10.6172 1.29004 10.5949 1.29004C10.4356 1.29004 10.2929 1.40004 10.2574 1.56136C10.0224 2.59611 9.10642 3.37081 7.99941 3.37081C6.89247 3.37081 5.97644 2.59616 5.74146 1.56136C5.70554 1.40004 5.56312 1.29004 5.40388 1.29004C5.38164 1.29004 5.35909 1.29218 5.33643 1.29662C4.69282 1.41899 4.05537 1.58642 3.42868 1.79838L0.488213 3.15624C0.401654 3.19612 0.335142 3.26937 0.304914 3.35843C0.273642 3.44854 0.27928 3.54581 0.323343 3.6308L1.60033 6.15094C1.66011 6.27055 1.7817 6.34234 1.91034 6.34234C1.94354 6.34234 1.97721 6.33753 2.01042 6.32756L3.42873 5.90719V14.3632C3.42873 14.5552 3.5854 14.7118 3.77794 14.7118H12.221C12.4131 14.7118 12.5693 14.5551 12.5693 14.3632V5.90729L13.9886 6.32767C14.0218 6.33764 14.0554 6.34244 14.0885 6.34244C14.2169 6.34244 14.338 6.27066 14.3987 6.15105L15.6761 3.6309C15.7191 3.54586 15.7253 3.4486 15.6945 3.35849Z" fill="white"/>
</g>
<defs>
<clipPath id="clip0_2554_6584">
<rect width="15.4286" height="15.4286" fill="white" transform="translate(0.285156 0.285645)"/>
</clipPath>
</defs>
</svg>
