<svg width="16" height="18" viewBox="0 0 16 18" fill="none" xmlns="http://www.w3.org/2000/svg">
<path d="M5.85451 7.19924C5.85451 6.92826 6.06064 6.70665 6.3222 6.68622V3.91114C6.06064 3.89071 5.85451 3.6691 5.85451 3.39812C5.85451 3.11367 6.08149 2.88307 6.36147 2.88307H6.56943C6.58954 2.61734 6.80767 2.40792 7.0744 2.40792C7.34113 2.40792 7.55926 2.61734 7.57937 2.88307H8.39328C8.41339 2.61734 8.63153 2.40792 8.89826 2.40792C9.17824 2.40792 9.40522 2.63852 9.40522 2.92297V3.07096C9.84459 3.32237 10.1422 3.80061 10.1422 4.34838C10.1422 4.71077 10.0118 5.04259 9.79646 5.29868C10.0118 5.55476 10.1422 5.88659 10.1422 6.24894C10.1422 7.05695 9.49516 7.71429 8.69986 7.71429H12.519C12.9157 6.97379 13.1412 6.1256 13.1412 5.22489C13.1412 2.34388 10.8342 0 7.99836 0C5.16257 0 2.85547 2.34388 2.85547 5.22489C2.85547 6.1256 3.08097 6.97379 3.47762 7.71429H6.36144C6.08149 7.71429 5.85451 7.48368 5.85451 7.19924Z" fill="white"/>
<path d="M7.2793 4.8982H8.76307C9.02007 4.8982 9.22919 4.69829 9.22919 4.45262C9.22919 4.20695 9.02007 4.00708 8.76307 4.00708H7.2793V4.8982Z" fill="white"/>
<path d="M8.76307 5.95166H7.2793V6.84277H8.76307C9.02007 6.84277 9.22919 6.64287 9.22919 6.3972C9.22919 6.15153 9.02007 5.95166 8.76307 5.95166Z" fill="white"/>
<path d="M3.97732 13.4735C3.97732 12.9281 3.51311 12.4844 2.94256 12.4844H0.804688V14.4626H2.9426C3.51315 14.4627 3.97732 14.019 3.97732 13.4735Z" fill="white"/>
<path d="M13.6536 8.95337H2.35197C1.49879 8.95337 0.804688 9.61688 0.804688 10.4325V11.4325H2.9426C4.12143 11.4325 5.08051 12.3493 5.08051 13.4762C5.08051 14.603 4.12143 15.5198 2.9426 15.5198H0.804688V16.5198C0.804688 17.3354 1.49879 17.9989 2.35197 17.9989H13.6536C14.5067 17.9989 15.2008 17.3354 15.2008 16.5198V10.4325C15.2008 9.61684 14.5067 8.95337 13.6536 8.95337Z" fill="white"/>
</svg>
