<svg width="16" height="16" viewBox="0 0 16 16" fill="none" xmlns="http://www.w3.org/2000/svg">
<g clip-path="url(#clip0_2554_6649)">
<path d="M6.51207 3.57129H2.33683C1.76609 3.57129 1.30176 4.03562 1.30176 4.60636V5.91083C1.89118 6.10194 2.31869 6.65598 2.31869 7.30826V8.59645H7.54714V6.33671V4.60636C7.54714 4.03562 7.0828 3.57129 6.51207 3.57129Z" fill="white"/>
<path d="M13.6615 3.57129H9.48624C8.91551 3.57129 8.45117 4.03562 8.45117 4.60636V6.33671V8.59645H13.6796V7.30829C13.6796 6.65601 14.1071 6.10197 14.6966 5.91083V4.60636C14.6966 4.03562 14.2322 3.57129 13.6615 3.57129Z" fill="white"/>
<path d="M15.1488 6.74341C14.8373 6.74341 14.5839 6.99683 14.5839 7.3083V9.50051H1.41497V7.3083C1.41497 6.99683 1.16154 6.74341 0.850077 6.74341C0.538583 6.74341 0.285156 6.99683 0.285156 7.3083V11.3082H1.18951V12.4286H2.09352V11.3082H13.9054V12.4286H14.8094V11.3082H15.7137V7.3083C15.7137 6.99683 15.4603 6.74341 15.1488 6.74341Z" fill="white"/>
</g>
<defs>
<clipPath id="clip0_2554_6649">
<rect width="15.4286" height="15.4286" fill="white" transform="translate(0.285156 0.285645)"/>
</clipPath>
</defs>
</svg>
