<svg width="13" height="14" viewBox="0 0 13 14" fill="none" xmlns="http://www.w3.org/2000/svg">
<path d="M2.29142 7.77875C2.29142 7.48551 2.17713 7.22051 1.9947 7.0182C2.17713 6.81589 2.29142 6.55089 2.29142 6.25765C2.29142 5.62857 1.77967 5.11682 1.15059 5.11682H0.00976562C0.00976562 5.40875 0.00976562 9.10992 0.00976562 8.91958H1.15059C1.77967 8.91958 2.29142 8.40783 2.29142 7.77875ZM0.770317 5.87737H1.15059C1.3604 5.87737 1.53087 6.04784 1.53087 6.25765C1.53087 6.46746 1.3604 6.63792 1.15059 6.63792H0.770317V5.87737ZM0.770317 7.39847H1.15059C1.3604 7.39847 1.53087 7.56894 1.53087 7.77875C1.53087 7.98856 1.3604 8.15903 1.15059 8.15903H0.770317V7.39847Z" fill="white"/>
<path d="M4.96329 6.25765C4.96329 5.62857 4.45154 5.11682 3.82247 5.11682H2.68164C2.68164 5.40875 2.68164 9.10992 2.68164 8.91958H3.44219V7.39847H3.58741L4.41293 9.04956L5.09327 8.70939L4.36583 7.25448C4.71987 7.06064 4.96329 6.68898 4.96329 6.25765ZM3.44219 6.63792V5.87737H3.82247C4.03228 5.87737 4.20274 6.04784 4.20274 6.25765C4.20274 6.46746 4.03228 6.63792 3.82247 6.63792H3.44219Z" fill="white"/>
<path d="M7.6254 8.91958C7.6254 8.631 7.6254 6.12889 7.6254 6.25765C7.6254 5.62857 7.11365 5.11682 6.48458 5.11682C5.8555 5.11682 5.34375 5.62857 5.34375 6.25765C5.34375 6.87086 5.34375 8.99769 5.34375 8.91958H6.1043V7.39847H6.86485V8.91958H7.6254ZM6.1043 6.63792V6.25765C6.1043 6.04784 6.27477 5.87737 6.48458 5.87737C6.69439 5.87737 6.86485 6.04784 6.86485 6.25765V6.63792H6.1043Z" fill="white"/>
<path d="M11.8495 5.11682H10.668V8.91958H11.8495C12.4786 8.91958 12.9903 8.40783 12.9903 7.77875V6.25765C12.9903 5.62855 12.4786 5.11682 11.8495 5.11682ZM12.2298 7.77875C12.2298 7.98856 12.0593 8.15903 11.8495 8.15903H11.4285V5.87737H11.8495C12.0593 5.87737 12.2298 6.04784 12.2298 6.25765V7.77875Z" fill="white"/>
<path d="M9.22987 8.91958H10.2875V5.11682H9.52696V6.9714L9.06351 5.11682H8.00586V8.91958H8.76641V7.065L9.22987 8.91958Z" fill="white"/>
<path d="M11.3144 3.59573C11.3114 3.57304 11.3052 3.55103 11.3062 3.52741L11.3058 3.36698C11.3177 3.05614 11.1966 2.75015 10.9746 2.5288C10.7525 2.30599 10.445 2.18493 10.1501 2.19644H9.96632C9.81702 2.19274 9.66514 2.10619 9.60239 1.93945L9.54224 1.80167C9.43454 1.50234 9.20168 1.26431 8.91909 1.15624C8.63834 1.03295 8.31118 1.0363 8.02225 1.16217L7.86109 1.23161C7.71068 1.29734 7.54209 1.26391 7.4225 1.13654L7.31481 1.02958C6.90185 0.569091 6.05293 0.583947 5.66819 1.01472L5.53748 1.14544C5.42717 1.26353 5.25858 1.29696 5.10632 1.23085L4.94924 1.16364C4.65734 1.03478 4.32944 1.03255 4.06614 1.14916C3.76719 1.26429 3.53434 1.50234 3.43519 1.77974L3.35979 1.95651C3.30371 2.10617 3.15368 2.20496 2.99364 2.19642L2.83321 2.1968C2.51459 2.18714 2.21676 2.30634 1.99503 2.52804C1.77222 2.75012 1.65116 3.05612 1.66267 3.35248L1.66305 3.54523C1.66379 3.56097 1.64964 3.57902 1.64759 3.59573H0.00976562V4.35628C0.274463 4.35628 13.4119 4.35628 12.9898 4.35628V3.59573H11.3144Z" fill="white"/>
<path d="M0.00995703 9.68011V10.4407H1.65465C1.65772 10.4634 1.66388 10.4854 1.66286 10.509L1.66324 10.6694C1.65135 10.9803 1.77243 11.2862 1.99449 11.5076C2.21657 11.7304 2.51737 11.8448 2.81893 11.84H3.00275C3.13273 11.8363 3.30355 11.9298 3.36667 12.0969L3.42683 12.2347C3.53453 12.5341 3.76738 12.7721 4.04998 12.8802C4.33037 13.0034 4.65789 13.0005 4.94682 12.8742L5.10798 12.8048C5.25951 12.7391 5.42698 12.7725 5.54657 12.8999L5.65426 13.0068C5.86075 13.2371 6.1634 13.3689 6.48463 13.3689C6.80586 13.3689 7.10851 13.2371 7.30088 13.0217L7.43159 12.891C7.54225 12.7729 7.71122 12.7391 7.86275 12.8055L8.01983 12.8728C8.31061 13.0009 8.63851 13.0031 8.90293 12.8872C9.20188 12.7721 9.43473 12.5341 9.53388 12.2567L9.60928 12.0799C9.66536 11.9302 9.80423 11.8337 9.97543 11.84L10.1359 11.8396C10.4597 11.8582 10.7527 11.7304 10.974 11.5084C11.1969 11.2863 11.3179 10.9803 11.3064 10.6839L11.306 10.4912C11.3053 10.4754 11.3194 10.4574 11.3215 10.4407H12.99V9.68011C12.7253 9.68011 -0.412149 9.68011 0.00995703 9.68011Z" fill="white"/>
</svg>
