<svg width="14" height="14" viewBox="0 0 14 14" fill="none" xmlns="http://www.w3.org/2000/svg">
<g clip-path="url(#clip0_8644_551)">
<path d="M9.14258 0.751526V3.06748H11.4585L9.14258 0.751526Z" fill="white"/>
<path d="M7.5144 5.40344H5.94653C5.64977 5.92149 5.14866 6.2748 4.57227 6.3836V8.21159C4.57227 9.58919 5.43481 10.7858 6.73047 11.2244C8.02613 10.7858 8.88867 9.58919 8.88867 8.21159V6.3836C8.31228 6.2748 7.81117 5.92146 7.5144 5.40344ZM8.07701 7.87451L6.64071 9.31081C6.56634 9.38518 6.46887 9.42237 6.37142 9.42237C6.27397 9.42237 6.17647 9.3852 6.10213 9.31081L5.38398 8.59266C5.23524 8.44392 5.23524 8.20278 5.38398 8.05405C5.53269 7.90531 5.77385 7.90531 5.92259 8.05405L6.37145 8.50288L7.53845 7.3359C7.68716 7.18716 7.92832 7.18716 8.07706 7.3359C8.22575 7.48464 8.22575 7.72577 8.07701 7.87451Z" fill="white"/>
<path d="M8.76172 3.82922C8.55138 3.82922 8.38086 3.6587 8.38086 3.44836V0.528442H3.17578C2.40576 0.528442 1.7793 1.15491 1.7793 1.92493V12.132C1.7793 12.902 2.40576 13.5284 3.17578 13.5284H10.2852C11.0552 13.5284 11.6816 12.902 11.6816 12.132V3.82922H8.76172ZM9.65039 8.21157C9.65039 9.06606 9.38077 9.88011 8.8707 10.5657C8.36062 11.2512 7.65837 11.7434 6.8399 11.9889C6.8042 11.9996 6.76734 12.005 6.73047 12.005C6.6936 12.005 6.65673 11.9996 6.62104 11.9889C5.80257 11.7434 5.10031 11.2512 4.59024 10.5657C4.08017 9.88011 3.81055 9.06606 3.81055 8.21157V6.03821C3.81055 5.82787 3.98107 5.65735 4.19141 5.65735C4.67269 5.65735 5.10537 5.38993 5.32058 4.95949L5.37418 4.85229C5.4387 4.72323 5.57057 4.64172 5.71484 4.64172H7.74609C7.89036 4.64172 8.02224 4.72323 8.08676 4.85226L8.14036 4.95949C8.35557 5.38993 8.78825 5.65735 9.26953 5.65735C9.47987 5.65735 9.65039 5.82787 9.65039 6.03821V8.21157Z" fill="white"/>
</g>
<defs>
<clipPath id="clip0_8644_551">
<rect width="13" height="13" fill="white" transform="translate(0.230469 0.528442)"/>
</clipPath>
</defs>
</svg>
