<svg width="16" height="16" viewBox="0 0 16 16" fill="none" xmlns="http://www.w3.org/2000/svg">
<g clip-path="url(#clip0_2554_6619)">
<path d="M15.3138 13.4037L9.26391 7.35386L2.1957 0.285645H1.64331L1.53052 0.572248C1.23283 1.32873 1.10563 2.10245 1.16274 2.80966C1.22783 3.61581 1.53408 4.31374 2.04843 4.8281L7.56626 10.3459L8.29405 9.61813L13.3953 15.3223C13.9027 15.8297 14.7762 15.8599 15.3138 15.3223C15.8427 14.7933 15.8427 13.9327 15.3138 13.4037Z" fill="white"/>
<path d="M5.00826 9.06714L0.686722 13.3887C0.157811 13.9176 0.157811 14.7782 0.686722 15.3072C1.18918 15.8096 2.05839 15.854 2.6052 15.3072L6.92677 10.9856L5.00826 9.06714Z" fill="white"/>
<path d="M15.0576 2.85366L12.6062 5.30506L11.9667 4.66556L14.4181 2.21413L13.7786 1.57463L11.3272 4.02602L10.6877 3.38652L13.1391 0.935127L12.4997 0.295654L9.30215 3.49317C8.91098 3.88433 8.67742 4.40372 8.64439 4.95572C8.63604 5.09557 8.60434 5.23313 8.55176 5.36397L10.6289 7.44107C10.7597 7.38843 10.8973 7.35676 11.0371 7.34841C11.5891 7.31548 12.1085 7.08185 12.4997 6.69068L15.6972 3.4932L15.0576 2.85366Z" fill="white"/>
</g>
<defs>
<clipPath id="clip0_2554_6619">
<rect width="15.4286" height="15.4286" fill="white" transform="translate(0.285156 0.285645)"/>
</clipPath>
</defs>
</svg>
