<svg width="16" height="10" viewBox="0 0 16 10" fill="none" xmlns="http://www.w3.org/2000/svg">
<path d="M15.5673 6.98754L15.4878 6.87061L15.4219 6.99576C14.9924 7.81189 13.5642 8.29962 12.4317 8.29962C10.9896 8.29962 3.86955 8.0829 2.94263 8.03011C2.75939 8.01925 2.568 8.01419 2.34027 8.01419C2.19901 8.01419 2.06784 8.01595 1.94099 8.01762C1.8308 8.01908 1.72684 8.02047 1.62916 8.02047C1.32436 8.02047 1.07374 7.93892 0.890774 7.87935C0.772204 7.84076 0.67853 7.8103 0.600956 7.8103C0.541145 7.8103 0.492677 7.82871 0.456913 7.86505C0.410076 7.91256 0.389052 7.98637 0.390716 8.0973C0.404914 9.05689 0.912986 9.13107 1.62919 9.13107C1.72755 9.13107 1.83227 9.12968 1.94326 9.12822C2.06954 9.12652 2.20013 9.12479 2.34027 9.12479C2.56457 9.12479 2.7528 9.12974 2.93278 9.14041C3.86082 9.19326 10.9881 9.41019 12.4317 9.41019C13.1644 9.41019 13.9744 9.21561 14.5983 8.88979C15.3164 8.51479 15.7118 8.01018 15.7118 7.46885C15.7118 7.29051 15.6632 7.12853 15.5673 6.98754Z" fill="white"/>
<path d="M1.53479 7.55872C1.63244 7.55872 1.7363 7.55733 1.84645 7.55587C1.97174 7.55417 2.10135 7.55244 2.2404 7.55244C2.46338 7.55244 2.65008 7.5574 2.82825 7.56806C3.74899 7.62091 10.8209 7.83781 12.2535 7.83781C12.9807 7.83781 13.7846 7.64323 14.4039 7.31727C15.1164 6.94224 15.5088 6.43766 15.5088 5.89647C15.5088 5.11156 14.6133 4.85808 13.6652 4.58966C13.1483 4.44334 12.6137 4.29203 12.162 4.0499C11.9586 3.9406 11.6484 3.7822 11.2704 3.59288C11.271 3.58194 11.272 3.57107 11.272 3.56C11.272 3.23683 11.0091 2.97395 10.686 2.97395C10.5409 2.97395 10.4083 3.0272 10.3058 3.11483C10.1689 3.04751 10.0286 2.97863 9.88577 2.9087C9.873 2.59677 9.61596 2.34676 9.30094 2.34676C9.17371 2.34676 9.05616 2.38796 8.96001 2.45711C8.83196 2.39485 8.70371 2.33256 8.57584 2.27051C8.57855 2.24769 8.58035 2.22459 8.58035 2.20105C8.58035 1.87792 8.31747 1.61503 7.99433 1.61503C7.83215 1.61503 7.68522 1.6813 7.57902 1.78808C6.32984 1.18487 5.30572 0.694938 5.21394 0.651056C5.15804 0.612914 5.09571 0.592773 5.03315 0.592773C4.93228 0.592773 4.83531 0.641818 4.77366 0.724148L4.08364 1.64947C3.99119 1.7747 3.95489 1.90091 3.97571 2.02471C4.01694 2.27 4.26997 2.44376 4.47328 2.58336C4.55422 2.63896 4.67459 2.72159 4.69392 2.7617C4.69364 2.76197 4.69334 2.76228 4.69307 2.76255C4.58061 2.87249 4.21967 3.03613 3.68609 3.03613C3.37766 3.03613 3.05266 2.97721 2.7462 2.86563C2.3712 2.7291 2.21625 2.35447 2.09177 2.05344C1.98767 1.80167 1.89773 1.58426 1.69792 1.58426C1.54634 1.58426 1.37095 1.72025 1.11058 2.04006C0.225567 3.16496 0.266936 4.88373 0.297164 6.13871C0.300391 6.27311 0.303515 6.40227 0.305316 6.52485C0.319377 7.48458 0.823747 7.55872 1.53479 7.55872ZM8.95236 4.07164C8.95236 4.07164 9.06587 3.95929 9.20618 4.0013C9.32828 4.03784 9.61701 4.11562 9.79366 4.1595C9.9447 4.19704 9.80833 4.31577 9.80833 4.31577L7.5151 6.4148C7.51326 6.41613 7.41999 6.50121 7.27847 6.50121C7.04999 6.50121 6.60706 6.49948 6.42657 6.49948C6.27655 6.49948 6.40103 6.37289 6.40103 6.37289C6.40103 6.37289 8.95206 4.07164 8.95236 4.07164ZM7.20626 3.5762C7.20687 3.57566 7.38325 3.40169 7.59562 3.46891C7.70329 3.50297 7.95599 3.56571 8.11715 3.61081C8.25497 3.64936 8.10883 3.79154 8.10876 3.79167L5.27005 6.36532C5.26808 6.36678 5.20243 6.48542 4.98119 6.48542C4.73151 6.48542 4.2551 6.49683 4.06017 6.49683C3.94999 6.49683 4.04795 6.37833 4.04785 6.3784L7.20626 3.5762Z" fill="white"/>
</svg>
