<svg width="16" height="16" viewBox="0 0 16 16" fill="none" xmlns="http://www.w3.org/2000/svg">
<g clip-path="url(#clip0_2554_6602)">
<path d="M10.7416 7.57812H0.737165C0.487325 7.57812 0.285156 7.78029 0.285156 8.03013V14.3583C0.285156 15.106 0.89344 15.7143 1.64118 15.7143H9.83762C10.5854 15.7143 11.1936 15.106 11.1936 14.3583V8.03013C11.1936 7.78029 10.9915 7.57812 10.7416 7.57812ZM8.42132 10.2902C8.42132 11.7857 7.20478 13.0022 5.70927 13.0022C4.21375 13.0022 2.99721 11.7857 2.99721 10.2902V9.83817C2.99721 9.58833 3.19938 9.38616 3.44922 9.38616C3.69906 9.38616 3.90123 9.58833 3.90123 9.83817V10.2902C3.90123 11.2873 4.7121 12.0982 5.70927 12.0982C6.70643 12.0982 7.5173 11.2873 7.5173 10.2902V9.83817C7.5173 9.58833 7.71947 9.38616 7.96931 9.38616C8.21915 9.38616 8.42132 9.58833 8.42132 9.83817V10.2902Z" fill="white"/>
<path d="M15.2619 3.96198H12.9415V2.9977C12.9415 1.50218 11.725 0.285645 10.2295 0.285645C8.73398 0.285645 7.51744 1.50218 7.51744 2.9977V3.96198H5.19713C4.94729 3.96198 4.74512 4.16415 4.74512 4.41399V6.67404H10.7418C11.4895 6.67404 12.0978 7.28232 12.0978 8.03007V14.3582C12.0978 14.8689 11.9211 15.3353 11.6342 15.7142H14.3578C15.1056 15.7142 15.7139 15.1059 15.7139 14.3582V4.41399C15.7139 4.16415 15.5117 3.96198 15.2619 3.96198ZM12.0375 3.96198H8.42146V2.9977C8.42146 2.00054 9.23233 1.18966 10.2295 1.18966C11.2267 1.18966 12.0375 2.00054 12.0375 2.9977V3.96198Z" fill="white"/>
</g>
<defs>
<clipPath id="clip0_2554_6602">
<rect width="15.4286" height="15.4286" fill="white" transform="translate(0.285156 0.285645)"/>
</clipPath>
</defs>
</svg>
