<svg width="16" height="16" viewBox="0 0 16 16" fill="none" xmlns="http://www.w3.org/2000/svg">
<g clip-path="url(#clip0_2554_6633)">
<path d="M8.62771 1.53192C8.80222 1.30064 8.77416 0.810073 8.74932 0.377331C8.74837 0.358678 8.74733 0.340436 8.74629 0.321909C8.50168 0.298553 8.25408 0.285645 8.00348 0.285645C7.04322 0.285645 6.1244 0.462548 5.27637 0.783246C5.88131 1.07396 6.81771 1.57434 7.85855 2.31367C8.21368 2.00806 8.48152 1.72593 8.62771 1.53192Z" fill="white"/>
<path d="M12.5367 5.93373C12.1564 5.97668 11.8358 6.03908 11.5615 6.1266C12.8725 8.41551 13.3836 11.3073 13.5087 13.4023C14.8075 12.0789 15.6323 10.29 15.7103 8.30843C14.8154 7.20844 13.6299 5.80972 12.5367 5.93373Z" fill="white"/>
<path d="M4.74311 3.95799C5.66423 3.76631 6.52962 3.3027 7.21963 2.81334C5.78016 1.82193 4.57955 1.30741 4.34073 1.20947C2.84732 2.01679 1.65227 3.30308 0.957031 4.86163C1.86071 4.50157 2.8394 4.31839 3.80068 4.13991C4.11165 4.08215 4.43311 4.02247 4.74311 3.95799Z" fill="white"/>
<path d="M10.0752 4.18226C10.1574 4.26488 10.2394 4.34893 10.3208 4.43456C10.6213 4.75002 10.894 5.09505 11.144 5.46009C11.5082 5.32261 11.9368 5.22512 12.45 5.16711C13.659 5.03035 14.734 5.98809 15.6567 7.0425C15.4589 5.44406 14.7734 3.99737 13.7519 2.85645C13.1943 2.92364 12.5727 3.03748 11.9391 3.22654C11.5235 3.35067 10.8616 3.68794 10.0752 4.18226Z" fill="white"/>
<path d="M9.05942 8.16628C9.37582 7.0946 9.74232 6.32207 10.4524 5.82061C10.2393 5.51469 10.01 5.22757 9.76154 4.96674C9.64662 4.84605 9.53041 4.7295 9.4137 4.61499C6.56485 6.55411 2.66247 10.1162 2.30762 13.2025C3.49213 14.4985 5.1132 15.3872 6.93809 15.6394C7.60256 14.3165 8.22796 11.6271 8.59969 10.0277C8.7783 9.25945 8.93244 8.59612 9.05942 8.16628Z" fill="white"/>
<path d="M5.82956 6.46685C6.82287 5.55153 7.87185 4.73074 8.83129 4.07107C8.51148 3.78812 8.19068 3.52729 7.87576 3.28809C7.07886 3.88713 6.0355 4.47714 4.89978 4.71335C4.58173 4.77953 4.25605 4.84004 3.94119 4.89849C2.72802 5.12378 1.56346 5.34196 0.584101 5.88839C0.393374 6.55974 0.289062 7.26754 0.289062 8.00002C0.289062 9.63861 0.801561 11.1568 1.67269 12.4062C2.23705 10.1717 4.17279 7.99352 5.82956 6.46685Z" fill="white"/>
<path d="M9.49601 3.63038C10.4138 3.04528 11.205 2.64073 11.7183 2.4875C12.1793 2.34982 12.6315 2.24955 13.0598 2.17642C12.0702 1.31653 10.8606 0.703661 9.5253 0.436523C9.5549 0.975281 9.56781 1.56678 9.24371 1.99652C9.08972 2.2006 8.82921 2.48049 8.49023 2.78414C8.8222 3.04254 9.15956 3.32432 9.49601 3.63038Z" fill="white"/>
<path d="M9.7996 8.3847C9.67916 8.79273 9.52723 9.44596 9.35146 10.2023C8.83246 12.4354 8.33584 14.4337 7.75586 15.708C7.8382 15.7106 7.92052 15.7142 8.00349 15.7142C9.80134 15.7142 11.4541 15.0976 12.7657 14.0665C12.7139 11.8742 12.1883 8.77332 10.8645 6.47144C10.351 6.85305 10.0747 7.45338 9.7996 8.3847Z" fill="white"/>
</g>
<defs>
<clipPath id="clip0_2554_6633">
<rect width="15.4286" height="15.4286" fill="white" transform="translate(0.285156 0.285645)"/>
</clipPath>
</defs>
</svg>
