<svg width="16" height="16" viewBox="0 0 16 16" fill="none" xmlns="http://www.w3.org/2000/svg">
<g clip-path="url(#clip0_2554_6592)">
<path d="M2.99707 13.0022H13.0015V6.67407H2.99707V13.0022ZM6.64328 8.0301C6.64328 7.86325 6.73509 7.71008 6.88209 7.63149C7.02908 7.5529 7.20696 7.56131 7.34603 7.654L10.0581 9.46203C10.1839 9.5459 10.2594 9.68716 10.2594 9.8381C10.2594 9.98905 10.1839 10.1303 10.0581 10.2142L7.34603 12.0222C7.20588 12.1157 7.02703 12.1225 6.88209 12.0447C6.73509 11.9662 6.64328 11.813 6.64328 11.6462V8.0301Z" fill="white"/>
<path d="M7.54785 8.87378V10.801L8.99305 9.8374L7.54785 8.87378Z" fill="white"/>
<path d="M14.3577 3.96191H1.64118C0.89344 3.96191 0.285156 4.5702 0.285156 5.31794V14.3581C0.285156 15.1059 0.89344 15.7142 1.64118 15.7142H14.3577C15.1054 15.7142 15.7137 15.1059 15.7137 14.3581V5.31794C15.7137 4.5702 15.1054 3.96191 14.3577 3.96191ZM13.9057 13.4541C13.9057 13.7039 13.7035 13.9061 13.4537 13.9061H2.5452C2.29536 13.9061 2.09319 13.7039 2.09319 13.4541V6.22196C2.09319 5.97212 2.29536 5.76995 2.5452 5.76995H13.4537C13.7035 5.76995 13.9057 5.97212 13.9057 6.22196V13.4541Z" fill="white"/>
<path d="M11.2945 0.418087L8.71484 2.9977H9.99319L11.9337 1.05723C12.1102 0.880673 12.1102 0.594612 11.9337 0.418057C11.7571 0.241502 11.471 0.241502 11.2945 0.418087Z" fill="white"/>
<path d="M4.06406 0.418083C3.8875 0.594638 3.8875 0.880699 4.06406 1.05725L6.0045 2.9977H7.28284L4.7032 0.418083C4.52664 0.241498 4.24061 0.241498 4.06406 0.418083Z" fill="white"/>
</g>
<defs>
<clipPath id="clip0_2554_6592">
<rect width="15.4286" height="15.4286" fill="white" transform="translate(0.285156 0.285645)"/>
</clipPath>
</defs>
</svg>
